<mxfile host="app.diagrams.net" modified="2024-03-15T22:53:52.295Z" agent="Mozilla/5.0 (Windows NT 10.0; Win64; x64) AppleWebKit/537.36 (KHTML, like Gecko) Chrome/122.0.0.0 Safari/537.36" version="24.0.7" etag="Qg1LmTMWlp0ISFTMnn2_" type="github">
  <diagram name="PÃ¡gina-1" id="U55U8zwWELBNFY-lUT3R">
    <mxGraphModel>
      <root>
        <mxCell id="0" />
        <mxCell id="1" parent="0" />
      </root>
    </mxGraphModel>
  </diagram>
</mxfile>
